<svg xmlns="http://www.w3.org/2000/svg" width="64" height="64" viewBox="0 0 64 64"><path d="M 32 0 C 14.333091 3.7795274e-005 -3.7795274e-005 14.333128 0 32 C -3.7795274e-005 49.666909 14.333091 63.999962 32 64 C 49.666909 64 64 49.666947 64 32 C 64 14.333091 49.666909 0 32 0 z M 32 1.0039062 C 49.126513 1.0039062 63.003906 14.873487 63.003906 32 C 63.003906 49.126513 49.126513 62.996132 32 62.996094 C 14.873525 62.996094 1.0039062 49.126475 1.0039062 32 C 1.0039062 14.873525 14.873525 1.0039062 32 1.0039062 z M 20.740234 15.833984 L 20.740234 15.835938 L 20.740234 15.837891 C 20.612411 15.837891 20.484684 15.886107 20.386719 15.984375 C 20.190864 16.180155 20.190864 16.495551 20.386719 16.691406 L 23.923828 20.226562 L 26.044922 22.347656 C 26.240777 22.543436 26.240777 22.858795 26.044922 23.054688 C 25.849067 23.250467 25.533761 23.250467 25.337891 23.054688 L 23.216797 20.933594 L 19.679688 17.398438 C 19.483832 17.202658 19.168526 17.202658 18.972656 17.398438 C 18.776801 17.594217 18.776801 17.909576 18.972656 18.105469 L 22.509766 21.640625 L 24.630859 23.761719 C 24.826714 23.957498 24.826714 24.272857 24.630859 24.46875 C 24.435004 24.66453 24.119698 24.66453 23.923828 24.46875 L 21.802734 22.347656 L 18.265625 18.8125 C 18.06977 18.61672 17.754464 18.61672 17.558594 18.8125 C 17.362739 19.00828 17.362739 19.323714 17.558594 19.519531 L 21.09375 23.054688 L 21.099609 23.054688 L 23.21875 25.173828 C 23.414605 25.369608 23.414605 25.684966 23.21875 25.880859 C 23.022895 26.076639 22.707589 26.076639 22.511719 25.880859 L 20.388672 23.759766 L 17.207031 20.578125 L 16.853516 20.224609 C 16.657661 20.02883 16.342355 20.02883 16.146484 20.224609 C 15.950629 20.420389 15.950629 20.735748 16.146484 20.931641 L 16.5 21.285156 L 19.681641 24.466797 L 21.802734 26.589844 L 22.865234 27.650391 A 1.4844276 1.4844276 0 0 0 24.492188 27.966797 L 26.023438 27.320312 L 45.253906 47.699219 A 0.96241134 0.96241134 0 0 0 46.634766 47.716797 L 47.839844 46.513672 A 1.0213776 1.0213776 0 0 0 47.818359 45.048828 L 27.484375 25.855469 L 28.130859 24.326172 A 1.4844286 1.4844286 0 0 0 27.8125 22.697266 L 24.630859 19.515625 L 21.09375 15.980469 C 20.99586 15.882579 20.867982 15.833984 20.740234 15.833984 z M 45.384766 17.507812 L 45.384766 17.509766 C 42.091883 17.521104 39.38999 19.055353 36.804688 21.640625 L 30.814453 27.630859 L 34.453125 31.0625 L 47.763672 17.75 C 46.935029 17.584079 46.144662 17.505545 45.384766 17.507812 z M 29.054688 31.994141 L 16.683594 43.242188 C 16.280621 43.608046 16.265544 44.236413 16.650391 44.621094 L 18.066406 46.035156 C 18.456911 46.425581 19.08996 46.425581 19.480469 46.035156 L 31.224609 34.291016 L 29.054688 31.994141 z "/></svg>